<svg xmlns="http://www.w3.org/2000/svg" xmlns:xlink="http://www.w3.org/1999/xlink" width="511.625" height="475.0810203552246" style="position: absolute;"><rect id="backgroundrect" width="100%" height="100%" x="0" y="0" fill="none" stroke="none"/>
	
<g class="currentLayer" style=""><title>Layer 1</title><path d="M475.366 71.951c-24.175-23.606-57.575-35.404-100.215-35.404-11.8 0-23.843 2.046-36.117 6.136-12.279 4.093-23.702 9.615-34.256 16.562-10.568 6.945-19.65 13.467-27.269 19.556a263.828 263.828 0 0 0-21.696 19.414 264.184 264.184 0 0 0-21.698-19.414c-7.616-6.089-16.702-12.607-27.268-19.556-10.564-6.95-21.985-12.468-34.261-16.562-12.275-4.089-24.316-6.136-36.116-6.136-42.637 0-76.039 11.801-100.211 35.404C12.087 95.552 0 128.288 0 170.162c0 12.753 2.24 25.889 6.711 39.398 4.471 13.514 9.566 25.031 15.275 34.546 5.708 9.514 12.181 18.796 19.414 27.837 7.233 9.042 12.519 15.27 15.846 18.699 3.33 3.422 5.948 5.899 7.851 7.419L243.25 469.937c3.427 3.429 7.614 5.144 12.562 5.144s9.138-1.715 12.563-5.137l177.87-171.307c43.588-43.583 65.38-86.41 65.38-128.475.001-41.874-12.088-74.61-36.259-98.211z" id="svg_1" class="selected" filter="url(#f169)" fill="#ffffff" fill-opacity="1" opacity="1"/><path fill="#4a90d6" fill-opacity="1" stroke="#222222" stroke-opacity="1" stroke-width="2" stroke-dasharray="none" stroke-linejoin="round" stroke-linecap="butt" stroke-dashoffset="" fill-rule="nonzero" opacity="1" marker-start="" marker-mid="" marker-end="" d="M410,189 C410,189 410,189 410,189 C410,189 410,189 410,189 C410,189 410,189 410,189 C410,189 410,189 410,189 Z" id="svg_2"/></g><defs><filter id="f169" y="-.25" height="1.5" xmlns:inkscape="http://www.inkscape.org/namespaces/inkscape" inkscape:menu-tooltip="Darkens the edge with an inner blur and adds a flexible glow" inkscape:menu="Shadows and Glows" inkscape:label="Dark and Glow" color-interpolation-filters="sRGB">
            <feGaussianBlur stdDeviation="20" result="result6" id="feGaussianBlur2933"/>
            <feComposite result="result8" in="SourceGraphic" operator="atop" in2="result6"/>
            <feComposite result="result9" operator="over" in2="SourceAlpha" in="result8"/>
            <feColorMatrix values="1 0 0 0 0 0 1 0 0 0 0 0 1 0 0 0 0 0 1 0 " result="result10"/>
            <feBlend in="result10" mode="normal" in2="result6"/>
        </filter></defs></svg>