<svg xmlns="http://www.w3.org/2000/svg" xmlns:xlink="http://www.w3.org/1999/xlink" width="511.625" height="475.0820121765137" style="position: absolute;"><rect id="backgroundrect" width="100%" height="100%" x="0" y="0" fill="none" stroke="none"/>

<g class="currentLayer" style=""><title>Layer 1</title><path d="M475.366,55.886824249267576 c-24.175,-23.606 -57.575,-35.404 -100.215,-35.404 c-11.8,0 -23.843,2.046 -36.117,6.136 c-12.279,4.093 -23.702,9.615 -34.256,16.562 c-10.568,6.945 -19.65,13.467 -27.269,19.556 a263.828,263.828 0 0 0 -21.696,19.414 a264.184,264.184 0 0 0 -21.698,-19.414 c-7.616,-6.089 -16.702,-12.607 -27.268,-19.556 c-10.564,-6.95 -21.985,-12.468 -34.261,-16.562 c-12.275,-4.089 -24.316,-6.136 -36.116,-6.136 c-42.637,0 -76.039,11.801 -100.211,35.404 C12.087,79.48782424926758 0,112.22382424926758 0,154.09782424926757 c0,12.753 2.24,25.891000000000002 6.711,39.398 c4.471,13.514 9.566,25.031 15.275,34.546 c5.708,9.514 12.181,18.792 19.414,27.834 c7.233,9.041 12.519,15.272 15.846,18.698 c3.33,3.426 5.948,5.9030000000000005 7.851,7.427 L243.25,453.87582424926757 c3.427,3.426 7.614,5.144 12.562,5.144 s9.138,-1.718 12.563,-5.144 l177.87,-171.31 c43.588,-43.58 65.38,-86.406 65.38,-128.472 c0.0010000000000000002,-41.877 -12.085,-74.61 -36.259,-98.207 zm-53.961,199.846 L255.813,415.3288242492676 L89.938,255.44482424926758 C54.344,219.85982424926758 36.55,186.0708242492676 36.55,154.09382424926758 c0,-15.415 2.046,-29.026 6.136,-40.824 c4.093,-11.8 9.327,-21.177 15.703,-28.124 c6.377,-6.949 14.132,-12.607 23.268,-16.988 c9.141,-4.377 18.086,-7.328 26.84,-8.85 c8.754,-1.52 18.079,-2.281 27.978,-2.281 c9.896,0 20.557,2.424 31.977,7.279 c11.418,4.853 21.934,10.944 31.545,18.271 c9.613,7.332 17.845,14.183 24.7,20.557 c6.851,6.38 12.559,12.229 17.128,17.559 c3.424,4.189 8.091,6.283 13.989,6.283 c5.9,0 10.562,-2.094 13.99,-6.283 c4.568,-5.33 10.28,-11.182 17.131,-17.559 c6.852,-6.374 15.085,-13.222 24.694,-20.557 c9.613,-7.327 20.129,-13.418 31.553,-18.271 c11.416,-4.854 22.08,-7.279 31.977,-7.279 s19.219,0.7610000000000001 27.977,2.281 c8.757,1.521 17.702,4.473 26.84,8.85 c9.137,4.38 16.892,10.042 23.267,16.988 c6.376,6.947 11.612,16.324 15.705,28.124 c4.086,11.798 6.132,25.409 6.132,40.824 c-0.0020000000000000005,31.977 -17.89,65.86 -53.675,101.639 z" id="svg_1" class="selected" fill="#ffffff" fill-opacity="1" filter="url(#f039)" stroke-width="1"/></g><defs><filter id="f039" xmlns:inkscape="http://www.inkscape.org/namespaces/inkscape" inkscape:label="Inset" inkscape:menu="Shadows and Glows" inkscape:menu-tooltip="Shadowy outer bevel" color-interpolation-filters="sRGB">
            <feMorphology result="result1" in="SourceAlpha" operator="dilate" radius="3.6"/>
            <feGaussianBlur stdDeviation="20" in="result1" result="result0"/>
            <feDiffuseLighting surfaceScale="-5">
                <feDistantLight elevation="45" azimuth="225"/>
            </feDiffuseLighting>
            <feComposite in2="result0" operator="in" result="result91"/>
            <feComposite in="SourceGraphic" in2="result91"/>
        </filter></defs></svg>