<svg xmlns="http://www.w3.org/2000/svg" xmlns:xlink="http://www.w3.org/1999/xlink" width="0" height="0" style="position:absolute">

		<symbol id="arrow-left" viewBox="0 0 444.531 444.531">
			<path d="M213.13 222.409L351.88 83.653c7.05-7.043 10.567-15.657 10.567-25.841 0-10.183-3.518-18.793-10.567-25.835l-21.409-21.416C323.432 3.521 314.817 0 304.637 0s-18.791 3.521-25.841 10.561L92.649 196.425c-7.044 7.043-10.566 15.656-10.566 25.841s3.521 18.791 10.566 25.837l186.146 185.864c7.05 7.043 15.66 10.564 25.841 10.564s18.795-3.521 25.834-10.564l21.409-21.412c7.05-7.039 10.567-15.604 10.567-25.697 0-10.085-3.518-18.746-10.567-25.978L213.13 222.409z"></path>
		</symbol>
	
		<symbol id="arrow-right" viewBox="0 0 444.819 444.819">
			<path d="M352.025 196.712L165.884 10.848C159.029 3.615 150.469 0 140.187 0s-18.842 3.619-25.697 10.848L92.792 32.264c-7.044 7.043-10.566 15.604-10.566 25.692 0 9.897 3.521 18.56 10.566 25.981L231.545 222.41 92.786 361.168c-7.042 7.043-10.564 15.604-10.564 25.693 0 9.896 3.521 18.562 10.564 25.98l21.7 21.413c7.043 7.043 15.612 10.564 25.697 10.564 10.089 0 18.656-3.521 25.697-10.564L352.025 248.39c7.046-7.423 10.571-16.084 10.571-25.981.001-10.088-3.525-18.654-10.571-25.697z"></path>
		</symbol>
	
		<symbol id="arrows-up" viewBox="0 0 284.929 284.929">
			<path d="M17.128 167.872c1.903 1.902 4.093 2.854 6.567 2.854s4.664-.952 6.567-2.854L142.466 55.666l112.208 112.206c1.902 1.902 4.093 2.854 6.563 2.854 2.478 0 4.668-.952 6.57-2.854l14.274-14.277c1.902-1.902 2.847-4.093 2.847-6.563 0-2.475-.951-4.665-2.847-6.567L149.028 7.419c-1.901-1.906-4.088-2.853-6.562-2.853s-4.665.95-6.567 2.853L2.856 140.464C.95 142.367 0 144.554 0 147.034c0 2.468.953 4.658 2.856 6.561l14.272 14.277z"></path><path d="M149.028 117.055c-1.901-1.906-4.088-2.856-6.562-2.856s-4.665.953-6.567 2.856L2.856 250.1C.95 252.003 0 254.192 0 256.67c0 2.472.953 4.661 2.856 6.564l14.272 14.276c1.903 1.903 4.093 2.848 6.567 2.848s4.664-.951 6.567-2.848l112.204-112.209L254.674 277.51c1.902 1.903 4.093 2.852 6.563 2.852 2.478 0 4.668-.948 6.57-2.852l14.274-14.276c1.902-1.903 2.847-4.093 2.847-6.564 0-2.478-.951-4.667-2.847-6.57L149.028 117.055z"></path>
		</symbol>
	
		<symbol id="back" viewBox="0 0 477.175 477.175">
			<path d="M145.188 238.575l215.5-215.5c5.3-5.3 5.3-13.8 0-19.1s-13.8-5.3-19.1 0l-225.1 225.1c-5.3 5.3-5.3 13.8 0 19.1l225.1 225c2.6 2.6 6.1 4 9.5 4s6.9-1.3 9.5-4c5.3-5.3 5.3-13.8 0-19.1l-215.4-215.5z" fill="#FFF"></path>
		</symbol>
	
		<symbol id="bars" viewBox="0 0 438.533 438.533">
			<path d="M420.265 328.897H18.274c-4.952 0-9.235 1.813-12.851 5.428C1.807 337.938 0 342.224 0 347.172v36.548c0 4.949 1.807 9.23 5.424 12.848 3.619 3.613 7.902 5.424 12.851 5.424h401.991c4.948 0 9.229-1.811 12.847-5.424 3.614-3.617 5.421-7.898 5.421-12.848v-36.548c0-4.948-1.8-9.233-5.421-12.847-3.618-3.614-7.896-5.428-12.848-5.428zM433.112 41.968c-3.617-3.617-7.898-5.426-12.847-5.426H18.274c-4.952 0-9.235 1.809-12.851 5.426C1.807 45.583 0 49.866 0 54.813V91.36c0 4.949 1.807 9.229 5.424 12.847 3.619 3.618 7.902 5.424 12.851 5.424h401.991c4.948 0 9.229-1.807 12.847-5.424 3.614-3.617 5.421-7.898 5.421-12.847V54.813c-.001-4.947-1.805-9.23-5.422-12.845zM420.265 182.72H18.274c-4.952 0-9.235 1.809-12.851 5.426C1.807 191.761 0 196.044 0 200.992v36.547c0 4.948 1.807 9.236 5.424 12.847 3.619 3.614 7.902 5.428 12.851 5.428h401.991c4.948 0 9.229-1.813 12.847-5.428 3.614-3.61 5.421-7.898 5.421-12.847v-36.547c0-4.948-1.807-9.231-5.421-12.847-3.618-3.617-7.896-5.425-12.848-5.425z"></path>
		</symbol>
	
		<symbol id="checked" viewBox="0 0 26 26">
			<path d="M.3 14c-.2-.2-.3-.5-.3-.7s.1-.5.3-.7l1.4-1.4c.4-.4 1-.4 1.4 0l.1.1 5.5 5.9c.2.2.5.2.7 0L22.8 3.3h.1c.4-.4 1-.4 1.4 0l1.4 1.4c.4.4.4 1 0 1.4l-16 16.6c-.2.2-.4.3-.7.3-.3 0-.5-.1-.7-.3L.5 14.3.3 14z"></path>
		</symbol>
	
		<symbol id="clock-price" viewBox="0 0 30 30">
			<path fill="#00959c" d="M15 4a1 1 0 0 0-1 1v9H9a1 1 0 1 0 0 2h6a1 1 0 0 0 1-1V5a1 1 0 0 0-1-1zm0-4C6.716 0 0 6.716 0 15s6.716 15 15 15 15-6.716 15-15S23.284 0 15 0zm0 28C7.82 28 2 22.18 2 15S7.82 2 15 2s13 5.82 13 13-5.82 13-13 13z"></path>
		</symbol>
	
		<symbol id="edit" viewBox="0 0 509.337 509.338">
			<path d="M396.283 310.907c-3.809-1.52-7.143-.853-9.996 1.998l-18.274 18.274c-1.711 1.708-2.573 3.806-2.573 6.276v35.978c0 12.565-4.463 23.314-13.408 32.264-8.952 8.945-19.701 13.418-32.264 13.418H82.224c-12.562 0-23.317-4.473-32.264-13.418-8.947-8.949-13.418-19.698-13.418-32.264V135.895c0-12.563 4.471-23.317 13.418-32.265 8.947-8.945 19.702-13.418 32.264-13.418H319.77c4.186 0 8.47.571 12.847 1.714 3.433 1.141 6.472.381 9.134-2.284l13.986-13.99c2.286-2.281 3.138-5.043 2.57-8.278-.571-3.044-2.286-5.234-5.141-6.565-10.28-4.752-21.412-7.139-33.403-7.139H82.224c-22.648 0-42.017 8.042-58.102 24.126C8.042 93.882 0 113.246 0 135.897V373.44c0 22.647 8.042 42.014 24.123 58.098 16.084 16.088 35.454 24.13 58.102 24.13h237.539c22.647 0 42.014-8.042 58.098-24.13 16.088-16.084 24.13-35.45 24.13-58.098v-54.245c-.001-4.004-1.908-6.761-5.709-8.288z"></path><path d="M182.721 300.354v82.221h82.229l191.86-191.859-82.228-82.225-191.861 191.863zm70.803 54.815l-15.99-.007v-27.401h-27.406v-15.984l33.12-33.12 43.396 43.4-33.12 33.112zm125.337-196.146l-99.931 99.928c-3.234 3.241-6.376 3.334-9.421.288-3.043-3.046-2.95-6.186.287-9.419l99.931-99.929c3.233-3.239 6.368-3.333 9.421-.287s2.943 6.185-.287 9.419zM501.346 107.348L457.95 63.952c-5.328-5.33-11.796-7.995-19.413-7.995-7.615 0-14.086 2.665-19.411 7.995l-26.269 26.263 82.228 82.229 26.262-26.268c5.328-5.327 7.991-11.8 7.991-19.414s-2.664-14.084-7.992-19.414z"></path>
		</symbol>
	
		<symbol id="envelope" viewBox="0 0 511.626 511.626">
			<path d="M49.106 178.729c6.472 4.567 25.981 18.131 58.528 40.685 32.548 22.554 57.482 39.92 74.803 52.099 1.903 1.335 5.946 4.237 12.131 8.71 6.186 4.476 11.326 8.093 15.416 10.852 4.093 2.758 9.041 5.852 14.849 9.277 5.806 3.422 11.279 5.996 16.418 7.7 5.14 1.718 9.898 2.569 14.275 2.569h.575c4.377 0 9.137-.852 14.277-2.569 5.137-1.704 10.615-4.281 16.416-7.7 5.804-3.429 10.752-6.52 14.845-9.277 4.093-2.759 9.229-6.376 15.417-10.852 6.184-4.477 10.232-7.375 12.135-8.71 17.508-12.179 62.051-43.11 133.615-92.79 13.894-9.703 25.502-21.411 34.827-35.116 9.332-13.699 13.993-28.07 13.993-43.105 0-12.564-4.523-23.319-13.565-32.264-9.041-8.947-19.749-13.418-32.117-13.418H45.679c-14.655 0-25.933 4.948-33.832 14.844C3.949 79.562 0 91.934 0 106.779c0 11.991 5.236 24.985 15.703 38.974 10.466 13.99 21.604 24.983 33.403 32.976z"></path><path d="M483.072 209.275c-62.424 42.251-109.824 75.087-142.177 98.501-10.849 7.991-19.65 14.229-26.409 18.699-6.759 4.473-15.748 9.041-26.98 13.702-11.228 4.668-21.692 6.995-31.401 6.995h-.578c-9.707 0-20.177-2.327-31.405-6.995-11.228-4.661-20.223-9.229-26.98-13.702-6.755-4.47-15.559-10.708-26.407-18.699-25.697-18.842-72.995-51.68-141.896-98.501C17.987 202.047 8.375 193.762 0 184.437v226.685c0 12.57 4.471 23.319 13.418 32.265 8.945 8.949 19.701 13.422 32.264 13.422h420.266c12.56 0 23.315-4.473 32.261-13.422 8.949-8.949 13.418-19.694 13.418-32.265V184.437c-8.186 9.132-17.7 17.417-28.555 24.838z"></path>
		</symbol>
	
		<symbol id="exit" viewBox="0 0 511.633 511.633">
			<path d="M463.375 183.726c-35.782-36.735-92.789-57.764-171.02-63.094V45.83c0-7.994-3.713-13.608-11.136-16.846-7.803-3.23-14.466-1.902-19.985 3.999L115.06 179.161c-3.618 3.621-5.424 7.902-5.424 12.85 0 4.949 1.807 9.229 5.424 12.847l146.178 146.177c3.432 3.617 7.71 5.425 12.85 5.425 2.283 0 4.661-.476 7.136-1.427 7.423-3.238 11.139-8.847 11.139-16.845v-71.663c30.642 2.475 56.097 7.471 76.376 14.989 20.27 7.519 36.494 18.034 48.677 31.549 28.362 31.405 38.451 85.171 30.266 161.311-.376 4.951 1.807 8.186 6.567 9.708.571.192 1.427.284 2.569.284 3.806 0 6.468-1.618 7.994-4.853l5.709-11.42c2.662-5.331 6.516-13.945 11.56-25.841 5.041-11.901 9.616-23.794 13.709-35.692 4.093-11.893 7.755-25.026 10.992-39.396 3.234-14.376 4.853-27.079 4.853-38.116-.005-63.954-16.089-112.391-48.26-145.322z"></path><path d="M63.953 192.011c0-4.952 1.809-9.233 5.424-12.85l113.348-113.63V45.83c0-7.994-3.715-13.608-11.138-16.846-7.804-3.23-14.465-1.902-19.983 3.999L5.424 179.161C1.809 182.781 0 187.062 0 192.011s1.809 9.229 5.424 12.847l146.18 146.177c3.425 3.617 7.708 5.425 12.85 5.425 2.284 0 4.663-.476 7.137-1.427 7.423-3.238 11.138-8.847 11.138-16.845v-19.985L69.377 204.857c-3.615-3.617-5.424-7.895-5.424-12.846z"></path>
		</symbol>
	
		<symbol id="eye-open" viewBox="0 0 511.626 511.626">
			<path d="M505.918 236.117c-26.651-43.587-62.485-78.609-107.497-105.065-45.015-26.457-92.549-39.687-142.608-39.687s-97.595 13.225-142.61 39.687C68.187 157.508 32.355 192.53 5.708 236.117 1.903 242.778 0 249.345 0 255.818c0 6.473 1.903 13.04 5.708 19.699 26.647 43.589 62.479 78.614 107.495 105.064 45.015 26.46 92.551 39.68 142.61 39.68 50.06 0 97.594-13.176 142.608-39.536 45.012-26.361 80.852-61.432 107.497-105.208 3.806-6.659 5.708-13.223 5.708-19.699 0-6.473-1.902-13.04-5.708-19.701zm-311.35-78.087c17.034-17.034 37.447-25.554 61.242-25.554 3.805 0 7.043 1.336 9.709 3.999 2.662 2.664 4 5.901 4 9.707 0 3.809-1.338 7.044-3.994 9.704-2.662 2.667-5.902 3.999-9.708 3.999-16.368 0-30.362 5.808-41.971 17.416-11.613 11.615-17.416 25.603-17.416 41.971 0 3.811-1.336 7.044-3.999 9.71-2.667 2.668-5.901 3.999-9.707 3.999-3.809 0-7.044-1.334-9.71-3.999-2.667-2.666-3.999-5.903-3.999-9.71 0-23.79 8.52-44.207 25.553-61.242zm185.299 191.01c-38.164 23.12-79.514 34.687-124.054 34.687-44.539 0-85.889-11.56-124.051-34.687s-69.901-54.2-95.215-93.222c28.931-44.921 65.19-78.518 108.777-100.783-11.61 19.792-17.417 41.207-17.417 64.236 0 35.216 12.517 65.329 37.544 90.362s55.151 37.544 90.362 37.544c35.214 0 65.329-12.518 90.362-37.544s37.545-55.146 37.545-90.362c0-23.029-5.808-44.447-17.419-64.236 43.585 22.265 79.846 55.865 108.776 100.783-25.31 39.022-57.046 70.095-95.21 93.222z"></path>
		</symbol>
	
		<symbol id="group" viewBox="0 0 548.169 548.169">
			<path d="M109.634 164.452c20.179 0 37.402-7.135 51.674-21.411 14.277-14.275 21.416-31.503 21.416-51.678 0-20.173-7.139-37.401-21.416-51.678-14.272-14.275-31.496-21.414-51.674-21.414-20.177 0-37.401 7.139-51.676 21.414-14.274 14.277-21.413 31.501-21.413 51.678 0 20.179 7.139 37.403 21.413 51.678 14.275 14.272 31.499 21.411 51.676 21.411zM196.569 278.519c21.413 21.406 47.248 32.114 77.516 32.114 30.269 0 56.103-10.708 77.515-32.114 21.409-21.42 32.117-47.258 32.117-77.52 0-30.264-10.708-56.101-32.117-77.515-21.412-21.414-47.246-32.121-77.515-32.121-30.268 0-56.105 10.709-77.516 32.121-21.411 21.411-32.12 47.248-32.12 77.515s10.709 56.103 32.12 77.52zM438.543 164.452c20.17 0 37.397-7.135 51.671-21.411 14.274-14.275 21.409-31.503 21.409-51.678 0-20.173-7.135-37.401-21.409-51.678-14.273-14.275-31.501-21.414-51.671-21.414-20.184 0-37.407 7.139-51.682 21.414-14.271 14.277-21.409 31.501-21.409 51.678 0 20.179 7.139 37.403 21.409 51.678 14.275 14.272 31.498 21.411 51.682 21.411zM512.763 164.456c-1.136 0-5.276 1.999-12.415 5.996-7.132 3.999-16.416 8.044-27.833 12.137-11.416 4.089-22.747 6.136-33.972 6.136-12.758 0-25.406-2.187-37.973-6.567.945 7.039 1.424 13.322 1.424 18.842 0 26.457-7.71 50.819-23.134 73.089 30.841.955 56.056 13.134 75.668 36.552h38.256c15.605 0 28.739-3.863 39.396-11.57 10.657-7.703 15.989-18.986 15.989-33.83.003-67.194-11.793-100.789-35.406-100.785z"></path><path d="M470.096 395.284c-1.999-11.136-4.524-21.464-7.57-30.978-3.046-9.521-7.139-18.794-12.271-27.836-5.141-9.034-11.044-16.748-17.706-23.127-6.667-6.379-14.805-11.464-24.414-15.276-9.609-3.806-20.225-5.708-31.833-5.708-1.906 0-5.996 2.047-12.278 6.14a3489 3489 0 0 0-20.841 13.702c-7.615 5.037-17.789 9.609-30.55 13.702-12.762 4.093-25.608 6.14-38.544 6.14-12.941 0-25.791-2.047-38.544-6.14-12.756-4.093-22.936-8.665-30.55-13.702a3554.86 3554.86 0 0 0-20.841-13.702c-6.283-4.093-10.373-6.14-12.279-6.14-11.609 0-22.22 1.902-31.833 5.708-9.613 3.812-17.749 8.897-24.41 15.276-6.667 6.372-12.562 14.093-17.705 23.127-5.137 9.042-9.229 18.315-12.275 27.836-3.045 9.514-5.564 19.842-7.566 30.978-2 11.136-3.331 21.505-3.997 31.121a427.043 427.043 0 0 0-.999 29.554c0 22.836 6.945 40.874 20.839 54.098 13.899 13.223 32.363 19.842 55.389 19.842h249.535c23.028 0 41.49-6.619 55.392-19.842 13.894-13.224 20.841-31.262 20.841-54.098 0-10.088-.335-19.938-.992-29.554-.676-9.616-2.007-19.986-3.998-31.121zM169.303 274.088c-15.418-22.27-23.125-46.632-23.122-73.089 0-5.52.477-11.799 1.427-18.842-12.564 4.377-25.221 6.567-37.974 6.567-11.23 0-22.552-2.046-33.974-6.136-11.417-4.093-20.699-8.138-27.834-12.137-7.138-3.997-11.281-5.996-12.422-5.996C11.801 164.456 0 198.051 0 265.24c0 14.844 5.33 26.127 15.987 33.83 10.66 7.707 23.794 11.563 39.397 11.563h38.26c19.607-23.411 44.823-35.591 75.659-36.545z"></path>
		</symbol>
	
		<symbol id="heart" viewBox="0 0 511.626 511.627">
			<path d="M475.366 71.951c-24.175-23.606-57.575-35.404-100.215-35.404-11.8 0-23.843 2.046-36.117 6.136-12.279 4.093-23.702 9.615-34.256 16.562-10.568 6.945-19.65 13.467-27.269 19.556a263.828 263.828 0 0 0-21.696 19.414 264.184 264.184 0 0 0-21.698-19.414c-7.616-6.089-16.702-12.607-27.268-19.556-10.564-6.95-21.985-12.468-34.261-16.562-12.275-4.089-24.316-6.136-36.116-6.136-42.637 0-76.039 11.801-100.211 35.404C12.087 95.552 0 128.288 0 170.162c0 12.753 2.24 25.889 6.711 39.398 4.471 13.514 9.566 25.031 15.275 34.546 5.708 9.514 12.181 18.796 19.414 27.837 7.233 9.042 12.519 15.27 15.846 18.699 3.33 3.422 5.948 5.899 7.851 7.419L243.25 469.937c3.427 3.429 7.614 5.144 12.562 5.144s9.138-1.715 12.563-5.137l177.87-171.307c43.588-43.583 65.38-86.41 65.38-128.475.001-41.874-12.088-74.61-36.259-98.211z"></path>
		</symbol>
	
		<symbol id="heart-outline" viewBox="0 0 511.626 511.626">
			<path d="M475.366 71.949c-24.175-23.606-57.575-35.404-100.215-35.404-11.8 0-23.843 2.046-36.117 6.136-12.279 4.093-23.702 9.615-34.256 16.562-10.568 6.945-19.65 13.467-27.269 19.556a263.828 263.828 0 0 0-21.696 19.414 264.184 264.184 0 0 0-21.698-19.414c-7.616-6.089-16.702-12.607-27.268-19.556-10.564-6.95-21.985-12.468-34.261-16.562-12.275-4.089-24.316-6.136-36.116-6.136-42.637 0-76.039 11.801-100.211 35.404C12.087 95.55 0 128.286 0 170.16c0 12.753 2.24 25.891 6.711 39.398 4.471 13.514 9.566 25.031 15.275 34.546 5.708 9.514 12.181 18.792 19.414 27.834 7.233 9.041 12.519 15.272 15.846 18.698 3.33 3.426 5.948 5.903 7.851 7.427L243.25 469.938c3.427 3.426 7.614 5.144 12.562 5.144s9.138-1.718 12.563-5.144l177.87-171.31c43.588-43.58 65.38-86.406 65.38-128.472.001-41.877-12.085-74.61-36.259-98.207zm-53.961 199.846L255.813 431.391 89.938 271.507C54.344 235.922 36.55 202.133 36.55 170.156c0-15.415 2.046-29.026 6.136-40.824 4.093-11.8 9.327-21.177 15.703-28.124 6.377-6.949 14.132-12.607 23.268-16.988 9.141-4.377 18.086-7.328 26.84-8.85 8.754-1.52 18.079-2.281 27.978-2.281 9.896 0 20.557 2.424 31.977 7.279 11.418 4.853 21.934 10.944 31.545 18.271 9.613 7.332 17.845 14.183 24.7 20.557 6.851 6.38 12.559 12.229 17.128 17.559 3.424 4.189 8.091 6.283 13.989 6.283 5.9 0 10.562-2.094 13.99-6.283 4.568-5.33 10.28-11.182 17.131-17.559 6.852-6.374 15.085-13.222 24.694-20.557 9.613-7.327 20.129-13.418 31.553-18.271 11.416-4.854 22.08-7.279 31.977-7.279s19.219.761 27.977 2.281c8.757 1.521 17.702 4.473 26.84 8.85 9.137 4.38 16.892 10.042 23.267 16.988 6.376 6.947 11.612 16.324 15.705 28.124 4.086 11.798 6.132 25.409 6.132 40.824-.002 31.977-17.89 65.86-53.675 101.639z"></path>
		</symbol>
	
		<symbol id="load-more" viewBox="0 0 512 512">
			<path d="M502.234 114.383H12.021C6 114.383 0 118.529 0 124.545v348.596c0 6.016 6 11.625 12.021 11.625h490.213c6.021 0 9.766-5.609 9.766-11.625V124.545c0-6.016-3.745-10.162-9.766-10.162zm-12.021 348.596H21.787v-39.795l153.351-152.787L320.239 404.87c4.287 3.98 11.12 3.868 15.258-.282l79.452-79.941 75.263 66.286v72.046zm0-100.99l-68.521-60.45c-4.298-3.77-10.537-3.559-14.59.496l-79.583 79.722-144.75-134.474c-4.285-3.979-11.506-3.867-15.644.283L21.787 392.375V136.17h468.426v225.819z" fill="#377cb5"></path><path d="M338.83 189.907c-30.032 0-54.468 24.436-54.468 54.468 0 30.032 24.436 54.468 54.468 54.468 30.032 0 54.468-24.436 54.468-54.468 0-30.032-24.436-54.468-54.468-54.468zm0 87.149c-18.021 0-32.681-14.66-32.681-32.681 0-18.021 14.66-32.681 32.681-32.681s32.681 14.66 32.681 32.681c0 18.021-14.66 32.681-32.681 32.681zM21.787 70.809h468.426v21.787H21.787zM54.468 27.234h403.064v21.787H54.468z" fill="#377cb5"></path>
		</symbol>
	
		<symbol id="lock" viewBox="0 0 401.998 401.998">
			<path d="M357.45 190.721c-5.331-5.33-11.8-7.993-19.417-7.993h-9.131v-54.821c0-35.022-12.559-65.093-37.685-90.218C266.093 12.563 236.025 0 200.998 0c-35.026 0-65.1 12.563-90.222 37.688-25.126 25.126-37.685 55.196-37.685 90.219v54.821h-9.135c-7.611 0-14.084 2.663-19.414 7.993-5.33 5.326-7.994 11.799-7.994 19.417V374.59c0 7.611 2.665 14.086 7.994 19.417 5.33 5.325 11.803 7.991 19.414 7.991H338.04c7.617 0 14.085-2.663 19.417-7.991 5.325-5.331 7.994-11.806 7.994-19.417V210.135c.004-7.612-2.669-14.084-8.001-19.414zm-83.363-7.993H127.909v-54.821c0-20.175 7.139-37.402 21.414-51.675 14.277-14.275 31.501-21.411 51.678-21.411 20.179 0 37.399 7.135 51.677 21.411 14.271 14.272 21.409 31.5 21.409 51.675v54.821z"></path>
		</symbol>
	
		<symbol id="map-marker" viewBox="0 0 438.536 438.536">
			<path d="M322.621 42.825C294.073 14.272 259.619 0 219.268 0c-40.353 0-74.803 14.275-103.353 42.825-28.549 28.549-42.825 63-42.825 103.353 0 20.749 3.14 37.782 9.419 51.106l104.21 220.986c2.856 6.276 7.283 11.225 13.278 14.838 5.996 3.617 12.419 5.428 19.273 5.428 6.852 0 13.278-1.811 19.273-5.428 5.996-3.613 10.513-8.562 13.559-14.838L356.02 197.284c6.282-13.324 9.424-30.358 9.424-51.106.005-40.353-14.268-74.8-42.823-103.353zm-51.679 155.03c-14.273 14.272-31.497 21.411-51.674 21.411s-37.401-7.139-51.678-21.411c-14.275-14.277-21.414-31.501-21.414-51.678 0-20.175 7.139-37.402 21.414-51.675 14.277-14.275 31.504-21.414 51.678-21.414 20.177 0 37.401 7.139 51.674 21.414 14.274 14.272 21.413 31.5 21.413 51.675 0 20.175-7.138 37.398-21.413 51.678z"></path>
		</symbol>
	
		<symbol id="next" viewBox="0 0 477.175 477.175">
			<path d="M360.731 229.075l-225.1-225.1c-5.3-5.3-13.8-5.3-19.1 0s-5.3 13.8 0 19.1l215.5 215.5-215.5 215.5c-5.3 5.3-5.3 13.8 0 19.1 2.6 2.6 6.1 4 9.5 4 3.4 0 6.9-1.3 9.5-4l225.1-225.1c5.3-5.2 5.3-13.8.1-19z" fill="#FFF"></path>
		</symbol>
	
		<symbol id="phone" viewBox="0 0 401.998 401.998">
			<path d="M401.129 311.475c-1.137-3.426-8.371-8.473-21.697-15.129-3.61-2.098-8.754-4.949-15.41-8.566a1437.412 1437.412 0 0 1-18.13-9.996 605.612 605.612 0 0 1-15.276-8.846c-.76-.571-3.139-2.234-7.136-5-4.001-2.758-7.375-4.805-10.14-6.14-2.759-1.327-5.473-1.995-8.138-1.995-3.806 0-8.56 2.714-14.268 8.135a139.01 139.01 0 0 0-15.7 17.706c-4.757 6.379-9.802 12.275-15.126 17.7-5.332 5.427-9.713 8.138-13.135 8.138-1.718 0-3.86-.479-6.427-1.424-2.566-.951-4.518-1.766-5.858-2.423-1.328-.671-3.607-1.999-6.845-4.004-3.244-1.999-5.048-3.094-5.428-3.285-26.075-14.469-48.438-31.029-67.093-49.676-18.649-18.658-35.211-41.019-49.676-67.097-.19-.381-1.287-2.19-3.284-5.424-2-3.237-3.333-5.518-3.999-6.854-.666-1.331-1.475-3.283-2.425-5.852s-1.427-4.709-1.427-6.424c0-3.424 2.713-7.804 8.138-13.134 5.424-5.327 11.326-10.373 17.7-15.128a138.95 138.95 0 0 0 17.701-15.699c5.424-5.711 8.136-10.467 8.136-14.273 0-2.663-.666-5.378-1.997-8.137-1.332-2.765-3.378-6.139-6.139-10.138-2.762-3.997-4.427-6.374-4.999-7.139a627.13 627.13 0 0 1-8.848-15.271 1441.4 1441.4 0 0 1-9.995-18.131c-3.615-6.658-6.468-11.799-8.564-15.415C98.986 9.233 93.943 1.997 90.516.859 89.183.288 87.183 0 84.521 0c-5.142 0-11.85.95-20.129 2.856-8.282 1.903-14.799 3.899-19.558 5.996-9.517 3.995-19.604 15.605-30.264 34.826C4.863 61.566.01 79.271.01 96.78c0 5.135.333 10.131.999 14.989.666 4.853 1.856 10.326 3.571 16.418 1.712 6.09 3.093 10.614 4.137 13.56 1.045 2.948 2.996 8.229 5.852 15.845 2.852 7.614 4.567 12.275 5.138 13.988 6.661 18.654 14.56 35.307 23.695 49.964 15.03 24.362 35.541 49.539 61.521 75.521 25.981 25.98 51.153 46.49 75.517 61.526 14.655 9.134 31.314 17.032 49.965 23.698 1.714.568 6.375 2.279 13.986 5.141 7.614 2.854 12.897 4.805 15.845 5.852 2.949 1.048 7.474 2.43 13.559 4.145 6.098 1.715 11.566 2.905 16.419 3.576 4.856.657 9.853.996 14.989.996 17.508 0 35.214-4.856 53.105-14.562 19.219-10.656 30.826-20.745 34.823-30.269 2.102-4.754 4.093-11.273 5.996-19.555 1.909-8.278 2.857-14.985 2.857-20.126.006-2.673-.281-4.668-.855-6.012z"></path>
		</symbol>
	
		<symbol id="picture" viewBox="0 0 548.176 548.176">
			<path d="M534.75 68.238c-8.945-8.945-19.694-13.417-32.261-13.417H45.681c-12.562 0-23.313 4.471-32.264 13.417C4.471 77.185 0 87.936 0 100.499v347.173c0 12.566 4.471 23.318 13.417 32.264 8.951 8.946 19.702 13.419 32.264 13.419h456.815c12.56 0 23.312-4.473 32.258-13.419 8.945-8.945 13.422-19.697 13.422-32.264V100.499c0-12.563-4.477-23.314-13.426-32.261zm-23.127 379.434c0 2.478-.899 4.613-2.707 6.427-1.81 1.8-3.952 2.703-6.427 2.703H45.681c-2.473 0-4.615-.903-6.423-2.703-1.807-1.813-2.712-3.949-2.712-6.427V100.495c0-2.474.902-4.611 2.712-6.423 1.809-1.803 3.951-2.708 6.423-2.708h456.815c2.471 0 4.613.905 6.42 2.708 1.801 1.812 2.707 3.949 2.707 6.423v347.177z"></path><path d="M127.91 237.541c15.229 0 28.171-5.327 38.831-15.987 10.657-10.66 15.987-23.601 15.987-38.826 0-15.23-5.333-28.171-15.987-38.832-10.66-10.656-23.603-15.986-38.831-15.986-15.227 0-28.168 5.33-38.828 15.986-10.656 10.66-15.986 23.601-15.986 38.832 0 15.225 5.327 28.169 15.986 38.826 10.66 10.657 23.601 15.987 38.828 15.987zM210.134 319.765l-45.682-45.677-91.36 91.359v54.82h401.993V292.36l-118.77-118.773z"></path>
		</symbol>
	
		<symbol id="plus" viewBox="0 0 401.994 401.994">
			<path d="M394 154.175c-5.331-5.33-11.806-7.994-19.417-7.994H255.811V27.406c0-7.611-2.666-14.084-7.994-19.414C242.488 2.666 236.02 0 228.398 0h-54.812c-7.612 0-14.084 2.663-19.414 7.993-5.33 5.33-7.994 11.803-7.994 19.414v118.775H27.407c-7.611 0-14.084 2.664-19.414 7.994S0 165.973 0 173.589v54.819c0 7.618 2.662 14.086 7.992 19.411 5.33 5.332 11.803 7.994 19.414 7.994h118.771V374.59c0 7.611 2.664 14.089 7.994 19.417 5.33 5.325 11.802 7.987 19.414 7.987h54.816c7.617 0 14.086-2.662 19.417-7.987 5.332-5.331 7.994-11.806 7.994-19.417V255.813h118.77c7.618 0 14.089-2.662 19.417-7.994 5.329-5.325 7.994-11.793 7.994-19.411v-54.819c-.002-7.616-2.661-14.087-7.993-19.414z"></path>
		</symbol>
	
		<symbol id="poster-arrow" viewBox="0 0 447.243 447.243">
			<path d="M406.101 232.603a31.842 31.842 0 0 0-3.116-2.745c-13.381-8.971-31.276-7.013-42.4 4.64l-88.64 88.32a64.002 64.002 0 0 0-11.68 16l-5.12 9.76v-314.4c.677-16.099-10.332-30.349-26.08-33.76-17.445-2.829-33.881 9.019-36.71 26.465a31.967 31.967 0 0 0-.41 5.535v315.52l-3.2-6.88a63.998 63.998 0 0 0-12.8-18.08l-88.64-88.48c-11.124-11.653-29.019-13.611-42.4-4.64-14.259 10.441-17.355 30.464-6.914 44.724a32.018 32.018 0 0 0 2.754 3.276l160 160c12.49 12.504 32.751 12.515 45.255.025l.025-.025 160-160c12.517-12.476 12.552-32.737.076-45.255z" fill="#FFF"></path>
		</symbol>
	
		<symbol id="remove" viewBox="0 0 339.177 339.177">
			<path d="M247.244 169.59l83.938-83.938c5.332-5.327 7.994-11.798 7.994-19.414 0-7.614-2.669-14.084-7.994-19.414L292.355 7.993C287.026 2.665 280.556 0 272.944 0c-7.617 0-14.085 2.665-19.417 7.993L169.59 91.931 85.651 7.993C80.325 2.665 73.854 0 66.237 0c-7.611 0-14.083 2.665-19.414 7.993L7.994 46.824C2.667 52.15 0 58.624 0 66.238c0 7.616 2.664 14.084 7.994 19.414l83.937 83.938-83.937 83.938C2.667 258.859 0 265.327 0 272.945c0 7.61 2.664 14.082 7.994 19.41l38.83 38.828c5.33 5.332 11.803 7.994 19.414 7.994 7.616 0 14.084-2.669 19.414-7.994l83.939-83.938 83.944 83.938c5.328 5.332 11.793 7.994 19.417 7.994 7.611 0 14.082-2.669 19.411-7.994l38.82-38.828c5.332-5.324 7.994-11.8 7.994-19.41 0-7.618-2.662-14.086-7.994-19.417l-83.939-83.938z"></path>
		</symbol>
	
		<symbol id="reply" viewBox="0 0 511.63 511.631">
			<path d="M496.5 233.842c-30.841-76.706-114.112-115.06-249.823-115.06h-63.953V45.693c0-4.952-1.809-9.235-5.424-12.85-3.617-3.617-7.896-5.426-12.847-5.426-4.952 0-9.235 1.809-12.85 5.426L5.424 179.021C1.809 182.641 0 186.922 0 191.871c0 4.948 1.809 9.229 5.424 12.847L151.604 350.9c3.619 3.613 7.902 5.428 12.85 5.428 4.947 0 9.229-1.814 12.847-5.428 3.616-3.614 5.424-7.898 5.424-12.848v-73.094h63.953c18.649 0 35.349.568 50.099 1.708a361.232 361.232 0 0 1 43.968 6.143c14.564 2.95 27.224 6.991 37.979 12.135 10.753 5.144 20.794 11.756 30.122 19.842 9.329 8.094 16.943 17.7 22.847 28.839 5.896 11.136 10.513 24.311 13.846 39.539 3.326 15.229 4.997 32.456 4.997 51.675 0 10.466-.479 22.176-1.428 35.118 0 1.137-.236 3.375-.715 6.708-.473 3.333-.712 5.852-.712 7.562 0 2.851.808 5.232 2.423 7.136 1.622 1.902 3.86 2.851 6.714 2.851 3.046 0 5.708-1.615 7.994-4.853 1.328-1.711 2.561-3.806 3.71-6.283a503.014 503.014 0 0 0 3.854-8.562 641.239 641.239 0 0 0 2.998-6.848c24.17-54.238 36.258-97.158 36.258-128.756-.002-37.873-5.043-69.568-15.132-95.07z"></path>
		</symbol>
	
		<symbol id="save" viewBox="0 0 438.533 438.533">
			<path d="M432.823 121.049c-3.806-9.132-8.377-16.367-13.709-21.695l-79.941-79.942c-5.325-5.325-12.56-9.895-21.696-13.704C308.346 1.903 299.969 0 292.357 0H27.409C19.798 0 13.325 2.663 7.995 7.993 2.665 13.32.003 19.792.003 27.407v383.719c0 7.617 2.662 14.089 7.992 19.417 5.33 5.325 11.803 7.991 19.414 7.991h383.718c7.618 0 14.089-2.666 19.417-7.991 5.325-5.328 7.987-11.8 7.987-19.417V146.178c0-7.616-1.902-15.99-5.708-25.129zM182.725 45.677c0-2.474.905-4.611 2.714-6.423 1.807-1.804 3.949-2.708 6.423-2.708h54.819c2.468 0 4.609.902 6.417 2.708 1.813 1.812 2.717 3.949 2.717 6.423v91.362c0 2.478-.91 4.618-2.717 6.427-1.808 1.803-3.949 2.708-6.417 2.708h-54.819c-2.474 0-4.617-.902-6.423-2.708-1.809-1.812-2.714-3.949-2.714-6.427V45.677zm146.181 356.314H109.633V292.355h219.273v109.636zm73.094 0h-36.559V283.218c0-7.617-2.663-14.085-7.991-19.417-5.328-5.328-11.8-7.994-19.41-7.994H100.498c-7.614 0-14.087 2.666-19.417 7.994-5.327 5.328-7.992 11.8-7.992 19.417v118.773H36.544V36.542h36.544v118.771c0 7.615 2.662 14.084 7.992 19.414 5.33 5.327 11.803 7.993 19.417 7.993h164.456c7.61 0 14.089-2.666 19.41-7.993 5.325-5.327 7.994-11.799 7.994-19.414V36.542c2.854 0 6.563.95 11.136 2.853 4.572 1.902 7.806 3.805 9.709 5.708l80.232 80.23c1.902 1.903 3.806 5.19 5.708 9.851 1.909 4.665 2.857 8.33 2.857 10.994v255.813z"></path>
		</symbol>
	
		<symbol id="search" viewBox="0 0 475.084 475.084">
			<path d="M464.524 412.846l-97.929-97.925c23.6-34.068 35.406-72.047 35.406-113.917 0-27.218-5.284-53.249-15.852-78.087-10.561-24.842-24.838-46.254-42.825-64.241-17.987-17.987-39.396-32.264-64.233-42.826C254.246 5.285 228.217.003 200.999.003c-27.216 0-53.247 5.282-78.085 15.847C98.072 26.412 76.66 40.689 58.673 58.676c-17.989 17.987-32.264 39.403-42.827 64.241C5.282 147.758 0 173.786 0 201.004c0 27.216 5.282 53.238 15.846 78.083 10.562 24.838 24.838 46.247 42.827 64.234 17.987 17.993 39.403 32.264 64.241 42.832 24.841 10.563 50.869 15.844 78.085 15.844 41.879 0 79.852-11.807 113.922-35.405l97.929 97.641c6.852 7.231 15.406 10.849 25.693 10.849 9.897 0 18.467-3.617 25.694-10.849 7.23-7.23 10.848-15.796 10.848-25.693.003-10.082-3.518-18.651-10.561-25.694zM291.363 291.358c-25.029 25.033-55.148 37.549-90.364 37.549-35.21 0-65.329-12.519-90.36-37.549-25.031-25.029-37.546-55.144-37.546-90.36 0-35.21 12.518-65.334 37.546-90.36 25.026-25.032 55.15-37.546 90.36-37.546 35.212 0 65.331 12.519 90.364 37.546 25.033 25.026 37.548 55.15 37.548 90.36 0 35.216-12.519 65.331-37.548 90.36z"></path>
		</symbol>
	
		<symbol id="sign-in" viewBox="0 0 438.542 438.542">
			<path d="M414.41 60.676c-16.084-16.083-35.446-24.125-58.102-24.125h-91.357c-2.478 0-4.429.614-5.853 1.855-1.431 1.237-2.382 3.093-2.854 5.568-.479 2.474-.76 4.709-.853 6.707-.096 1.997-.051 4.521.144 7.565.186 3.046.281 4.949.281 5.713.571 1.524.767 2.81.571 3.855-.191 1.043.476 1.903 1.998 2.568 1.52.666 2.279 1.191 2.279 1.569 0 .378 1.096.662 3.285.855 2.19.192 3.289.284 3.289.284h89.083c12.56 0 23.312 4.471 32.258 13.422 8.952 8.945 13.422 19.696 13.422 32.261V319.77c0 12.563-4.47 23.312-13.422 32.258-8.945 8.948-19.698 13.421-32.258 13.421h-91.357c-2.478 0-4.436.62-5.853 1.855-1.43 1.242-2.382 3.094-2.857 5.564-.476 2.478-.763 4.716-.855 6.714-.092 1.995-.051 4.518.144 7.563.195 3.046.288 4.948.288 5.708 0 2.478.896 4.613 2.707 6.427 1.81 1.807 3.949 2.71 6.427 2.71h91.357c22.648 0 42.018-8.042 58.095-24.133 16.084-16.077 24.126-35.446 24.126-58.095V118.769c-.01-22.651-8.052-42.015-24.133-58.093z"></path><path d="M338.047 219.27c0-4.948-1.813-9.233-5.427-12.85L177.302 51.101c-3.616-3.612-7.895-5.424-12.847-5.424s-9.233 1.812-12.85 5.424c-3.615 3.617-5.424 7.904-5.424 12.85v82.226H18.274c-4.952 0-9.235 1.812-12.851 5.424C1.807 155.219 0 159.503 0 164.452v109.635c0 4.949 1.807 9.233 5.424 12.848 3.619 3.61 7.902 5.427 12.851 5.427h127.906v82.225c0 4.945 1.809 9.233 5.424 12.847 3.621 3.617 7.902 5.428 12.85 5.428 4.949 0 9.231-1.811 12.847-5.428L332.62 232.122c3.614-3.621 5.427-7.906 5.427-12.852z"></path>
		</symbol>
	
		<symbol id="skype" viewBox="0 0 438.536 438.536">
			<path d="M415.7 262.093c3.039-14.657 4.564-28.935 4.564-42.826 0-27.218-5.276-53.247-15.844-78.087-10.562-24.838-24.838-46.249-42.825-64.237-17.987-17.988-39.395-32.263-64.234-42.829-24.845-10.559-50.866-15.843-78.088-15.843-13.894 0-28.171 1.524-42.827 4.57C156.651 7.614 134.381 0 109.637 0 79.375 0 53.538 10.705 32.124 32.115 10.708 53.531.004 79.368.004 109.631c0 24.744 7.614 47.014 22.839 66.809-3.044 14.655-4.568 28.933-4.568 42.827 0 27.215 5.28 53.243 15.843 78.085 10.562 24.838 24.838 46.25 42.827 64.241 17.987 17.986 39.401 32.257 64.239 42.824 24.84 10.564 50.869 15.845 78.087 15.845 13.893 0 28.17-1.526 42.834-4.572 19.79 15.229 42.058 22.847 66.804 22.847 30.259 0 56.103-10.711 77.505-32.12 21.416-21.416 32.12-47.253 32.12-77.519-.005-24.74-7.616-47.007-22.834-66.805zm-90.228 42.397c-6.276 11.136-14.702 20.033-25.263 26.696-10.567 6.663-22.224 11.748-34.975 15.273-12.751 3.518-26.073 5.283-39.971 5.283-32.163 0-59.855-6.235-83.078-18.705-23.223-12.471-34.833-27.453-34.833-44.968 0-8.562 2.428-15.693 7.282-21.408 4.853-5.712 12.038-8.562 21.555-8.562 5.52 0 10.657 1.522 15.415 4.564 4.758 3.046 9.135 6.715 13.134 10.999 3.999 4.285 8.326 8.562 12.99 12.847 4.661 4.285 10.847 7.946 18.555 10.992 7.71 3.046 16.418 4.572 26.128 4.572 12.371 0 22.36-2.423 29.981-7.275 7.61-4.859 11.416-10.999 11.416-18.418 0-7.618-3.042-13.326-9.13-17.132-4.182-2.673-14.846-6.098-31.977-10.283l-41.688-10.284c-11.419-2.662-21.222-5.752-29.408-9.271-8.186-3.524-15.8-8.134-22.841-13.849-7.039-5.708-12.369-12.891-15.986-21.555-3.616-8.658-5.424-18.796-5.424-30.406 0-13.896 3.189-26.121 9.563-36.688 6.374-10.565 14.849-18.846 25.409-24.841 10.562-5.996 21.935-10.468 34.119-13.418 12.179-2.951 24.742-4.426 37.685-4.426 18.276 0 35.589 2.19 51.961 6.567 16.368 4.377 29.882 10.801 40.538 19.271 10.657 8.473 15.985 17.942 15.985 28.409 0 8.562-2.707 15.893-8.138 21.982-5.414 6.088-12.601 9.134-21.55 9.134-4.948 0-9.514-1.143-13.702-3.427a54.891 54.891 0 0 1-11.423-8.278 217.22 217.22 0 0 0-10.852-9.563c-3.806-3.14-8.946-5.852-15.41-8.136-6.479-2.284-13.802-3.427-21.986-3.427-27.406 0-41.112 7.323-41.112 21.982 0 3.234.715 6.09 2.141 8.564 1.427 2.474 3 4.473 4.71 5.996 1.709 1.525 4.565 3.046 8.564 4.57 3.999 1.525 7.33 2.622 9.994 3.284 2.663.666 6.854 1.665 12.562 2.996l29.694 6.851c9.325 2.096 17.648 4.286 24.981 6.567 7.331 2.288 15.181 5.521 23.555 9.71 8.374 4.187 15.321 8.848 20.838 13.988 5.523 5.144 10.137 11.656 13.853 19.555 3.714 7.901 5.564 16.61 5.564 26.124-.001 13.894-3.136 26.411-9.425 37.544z"></path>
		</symbol>
	
		<symbol id="text-file" viewBox="0 0 438.533 438.533">
			<path d="M396.283 130.188c-3.806-9.135-8.371-16.365-13.703-21.695l-89.078-89.081c-5.332-5.325-12.56-9.895-21.697-13.704C262.672 1.903 254.297 0 246.687 0H63.953C56.341 0 49.869 2.663 44.54 7.993c-5.33 5.327-7.994 11.799-7.994 19.414v383.719c0 7.617 2.664 14.089 7.994 19.417 5.33 5.325 11.801 7.991 19.414 7.991h310.633c7.611 0 14.079-2.666 19.407-7.991 5.328-5.332 7.994-11.8 7.994-19.417V155.313c.003-7.614-1.9-15.99-5.705-25.125zM255.816 38.826c5.517 1.903 9.418 3.999 11.704 6.28l89.366 89.366c2.279 2.286 4.374 6.186 6.276 11.706H255.816V38.826zm109.633 363.165H73.089V36.545h146.178v118.771c0 7.614 2.662 14.084 7.992 19.414 5.332 5.327 11.8 7.994 19.417 7.994h118.773v219.267z"></path><path d="M319.77 292.355h-201c-2.663 0-4.853.855-6.567 2.566-1.709 1.711-2.568 3.901-2.568 6.563v18.274c0 2.67.856 4.859 2.568 6.57 1.715 1.711 3.905 2.567 6.567 2.567h201c2.663 0 4.854-.856 6.564-2.567s2.566-3.9 2.566-6.57v-18.274c0-2.662-.855-4.853-2.566-6.563-1.715-1.707-3.905-2.566-6.564-2.566zM112.202 221.831c-1.709 1.712-2.568 3.901-2.568 6.571v18.271c0 2.666.856 4.856 2.568 6.567 1.715 1.711 3.905 2.566 6.567 2.566h201c2.663 0 4.854-.855 6.564-2.566s2.566-3.901 2.566-6.567v-18.271c0-2.663-.855-4.854-2.566-6.571-1.715-1.709-3.905-2.564-6.564-2.564h-201c-2.662 0-4.852.855-6.567 2.564z"></path>
		</symbol>
	
		<symbol id="upload" viewBox="0 0 475.078 475.077">
			<path d="M467.081 327.767c-5.321-5.331-11.797-7.994-19.411-7.994H325.76c-3.994 10.657-10.705 19.411-20.126 26.262-9.425 6.852-19.938 10.28-31.546 10.28h-73.096c-11.609 0-22.126-3.429-31.545-10.28-9.423-6.851-16.13-15.604-20.127-26.262H27.408c-7.612 0-14.083 2.663-19.414 7.994C2.664 333.092 0 339.563 0 347.178v91.361c0 7.61 2.664 14.089 7.994 19.41 5.33 5.329 11.801 7.991 19.414 7.991h420.266c7.61 0 14.086-2.662 19.41-7.991 5.332-5.328 7.994-11.8 7.994-19.41v-91.361c0-7.615-2.662-14.079-7.997-19.411zm-107.056 96.211c-3.621 3.617-7.905 5.428-12.854 5.428s-9.227-1.811-12.847-5.428c-3.614-3.613-5.421-7.898-5.421-12.847s1.807-9.236 5.421-12.847c3.62-3.613 7.898-5.428 12.847-5.428s9.232 1.814 12.854 5.428c3.613 3.61 5.421 7.898 5.421 12.847s-1.808 9.233-5.421 12.847zm73.084 0c-3.614 3.617-7.898 5.428-12.848 5.428-4.948 0-9.229-1.811-12.847-5.428-3.613-3.613-5.42-7.898-5.42-12.847s1.807-9.236 5.42-12.847c3.617-3.613 7.898-5.428 12.847-5.428s9.233 1.814 12.848 5.428c3.617 3.61 5.427 7.898 5.427 12.847s-1.807 9.233-5.427 12.847zM109.632 173.59h73.089v127.909c0 4.948 1.809 9.232 5.424 12.847 3.617 3.613 7.9 5.427 12.847 5.427h73.096c4.948 0 9.227-1.813 12.847-5.427 3.614-3.614 5.421-7.898 5.421-12.847V173.59h73.091c7.997 0 13.613-3.809 16.844-11.42 3.237-7.422 1.902-13.99-3.997-19.701L250.385 14.562c-3.429-3.617-7.706-5.426-12.847-5.426-5.136 0-9.419 1.809-12.847 5.426L96.786 142.469c-5.902 5.711-7.233 12.275-3.999 19.701 3.239 7.615 8.853 11.42 16.845 11.42z"></path>
		</symbol>
	
		<symbol id="user-shape" viewBox="0 0 438.529 438.529">
			<path d="M219.265 219.267c30.271 0 56.108-10.71 77.518-32.121 21.412-21.411 32.12-47.248 32.12-77.515 0-30.262-10.708-56.1-32.12-77.516C275.366 10.705 249.528 0 219.265 0S163.16 10.705 141.75 32.115c-21.414 21.416-32.121 47.253-32.121 77.516 0 30.267 10.707 56.104 32.121 77.515 21.416 21.411 47.251 32.121 77.515 32.121z"></path><path d="M419.258 335.036c-.668-9.609-2.002-19.985-3.997-31.121-1.999-11.136-4.524-21.457-7.57-30.978-3.046-9.514-7.139-18.794-12.278-27.836-5.137-9.041-11.037-16.748-17.703-23.127-6.666-6.377-14.801-11.465-24.406-15.271-9.617-3.805-20.229-5.711-31.84-5.711-1.711 0-5.709 2.046-11.991 6.139a2716.072 2716.072 0 0 1-21.266 13.708c-7.898 5.037-18.182 9.609-30.834 13.695-12.658 4.093-25.361 6.14-38.118 6.14-12.752 0-25.456-2.047-38.112-6.14-12.655-4.086-22.936-8.658-30.835-13.695a2784.143 2784.143 0 0 1-21.267-13.708c-6.283-4.093-10.278-6.139-11.991-6.139-11.61 0-22.222 1.906-31.833 5.711-9.613 3.806-17.749 8.898-24.412 15.271-6.661 6.379-12.562 14.086-17.699 23.127-5.137 9.042-9.229 18.326-12.275 27.836-3.045 9.521-5.568 19.842-7.566 30.978-2 11.136-3.332 21.505-3.999 31.121a427.742 427.742 0 0 0-.998 29.554c0 22.836 6.949 40.875 20.842 54.104 13.896 13.224 32.36 19.835 55.39 19.835h249.533c23.028 0 41.49-6.611 55.388-19.835 13.901-13.229 20.845-31.265 20.845-54.104-.002-10.088-.334-19.938-1.008-29.554z"></path>
		</symbol>

		<symbol id="facebook" viewBox="0 0 438.536 438.536">
			<path d="M414.41,24.123C398.333,8.042,378.963,0,356.315,0H82.228C59.58,0,40.21,8.042,24.126,24.123   C8.045,40.207,0.003,59.576,0.003,82.225v274.084c0,22.647,8.042,42.018,24.123,58.102c16.084,16.084,35.454,24.126,58.102,24.126   h274.084c22.648,0,42.018-8.042,58.095-24.126c16.084-16.084,24.126-35.454,24.126-58.102V82.225   C438.532,59.576,430.49,40.204,414.41,24.123z M373.155,225.548h-49.963V406.84h-74.802V225.548H210.99V163.02h37.401v-37.402   c0-26.838,6.283-47.107,18.843-60.813c12.559-13.706,33.304-20.555,62.242-20.555h49.963v62.526h-31.401   c-10.663,0-17.467,1.853-20.417,5.568c-2.949,3.711-4.428,10.23-4.428,19.558v31.119h56.534L373.155,225.548z" style="fill: rgb(0, 0, 0);"></path>
		</symbol>

		<symbol id="viber" viewBox="0 0 350 350">
			<path d="M31.256,0H21.254C10.778,0,2.255,8.521,2.255,18.995v9.01c0,7.8,4.793,14.81,12,17.665v5.841    c0,0.396,0.233,0.754,0.595,0.914c0.13,0.058,0.268,0.086,0.405,0.086c0.243,0,0.484-0.089,0.671-0.259L21.725,47h9.531    c10.476,0,18.999-8.521,18.999-18.995v-9.01C50.255,8.521,41.732,0,31.256,0z M48.255,28.005C48.255,37.376,40.63,45,31.256,45    h-9.917c-0.248,0-0.487,0.092-0.671,0.259l-4.413,3.997v-4.279c0-0.424-0.267-0.802-0.667-0.942    C8.81,41.638,4.255,35.196,4.255,28.005v-9.01C4.255,9.624,11.881,2,21.254,2h10.002c9.374,0,16.999,7.624,16.999,16.995V28.005z"></path>
			<path id="XMLID_9_" d="M176.077,25.688c1.275,0.092,2.482,0.18,3.487,0.334c70.689,10.871,103.198,44.363,112.207,115.605   c0.153,1.211,0.177,2.688,0.202,4.252c0.09,5.566,0.275,17.145,12.71,17.385l0.386,0.004c3.9,0,7.002-1.176,9.221-3.498   c3.871-4.049,3.601-10.064,3.383-14.898c-0.053-1.186-0.104-2.303-0.091-3.281C318.481,68.729,255.411,2.658,182.614,0.201   c-0.302-0.01-0.59,0.006-0.881,0.047c-0.143,0.021-0.408,0.047-0.862,0.047c-0.726,0-1.619-0.063-2.566-0.127   C177.16,0.09,175.862,0,174.546,0c-11.593,0-13.797,8.24-14.079,13.152C159.817,24.504,170.799,25.303,176.077,25.688z" style="fill: rgb(0, 0, 0);"></path>
			<path id="XMLID_10_" d="M288.36,233.703c-1.503-1.148-3.057-2.336-4.512-3.508c-7.718-6.211-15.929-11.936-23.87-17.473   c-1.648-1.148-3.296-2.297-4.938-3.449c-10.172-7.145-19.317-10.617-27.957-10.617c-11.637,0-21.783,6.43-30.157,19.109   c-3.71,5.621-8.211,8.354-13.758,8.354c-3.28,0-7.007-0.936-11.076-2.783c-32.833-14.889-56.278-37.717-69.685-67.85   c-6.481-14.564-4.38-24.084,7.026-31.832c6.477-4.396,18.533-12.58,17.679-28.252c-0.967-17.797-40.235-71.346-56.78-77.428   c-7.005-2.576-14.365-2.6-21.915-0.06c-19.02,6.394-32.669,17.623-39.475,32.471C2.365,64.732,2.662,81.578,9.801,99.102   c20.638,50.666,49.654,94.84,86.245,131.293c35.816,35.684,79.837,64.914,130.839,86.875c4.597,1.978,9.419,3.057,12.94,3.844   c1.2,0.27,2.236,0.5,2.991,0.707c0.415,0.113,0.843,0.174,1.272,0.178l0.403,0.002c0.001,0,0,0,0.002,0   c23.988,0,52.791-21.92,61.637-46.91C313.88,253.209,299.73,242.393,288.36,233.703z" style="fill: rgb(0, 0, 0);"></path>
			<path id="XMLID_11_" d="M186.687,83.564c-4.107,0.104-12.654,0.316-15.653,9.021c-1.403,4.068-1.235,7.6,0.5,10.498   c2.546,4.252,7.424,5.555,11.861,6.27c16.091,2.582,24.355,11.48,26.008,28c0.768,7.703,5.955,13.082,12.615,13.082h0.001   c0.492,0,0.995-0.029,1.496-0.09c8.01-0.953,11.893-6.838,11.542-17.49c0.128-11.117-5.69-23.738-15.585-33.791   C209.543,88.98,197.574,83.301,186.687,83.564z" style="fill: rgb(0, 0, 0);"></path>
		</symbol>

		<symbol id="whatsapp" viewBox="0 0 300 300">
			<path id="XMLID_469_" d="M227.904,176.981c-0.6-0.288-23.054-11.345-27.044-12.781c-1.629-0.585-3.374-1.156-5.23-1.156   c-3.032,0-5.579,1.511-7.563,4.479c-2.243,3.334-9.033,11.271-11.131,13.642c-0.274,0.313-0.648,0.687-0.872,0.687   c-0.201,0-3.676-1.431-4.728-1.888c-24.087-10.463-42.37-35.624-44.877-39.867c-0.358-0.61-0.373-0.887-0.376-0.887   c0.088-0.323,0.898-1.135,1.316-1.554c1.223-1.21,2.548-2.805,3.83-4.348c0.607-0.731,1.215-1.463,1.812-2.153   c1.86-2.164,2.688-3.844,3.648-5.79l0.503-1.011c2.344-4.657,0.342-8.587-0.305-9.856c-0.531-1.062-10.012-23.944-11.02-26.348   c-2.424-5.801-5.627-8.502-10.078-8.502c-0.413,0,0,0-1.732,0.073c-2.109,0.089-13.594,1.601-18.672,4.802   c-5.385,3.395-14.495,14.217-14.495,33.249c0,17.129,10.87,33.302,15.537,39.453c0.116,0.155,0.329,0.47,0.638,0.922   c17.873,26.102,40.154,45.446,62.741,54.469c21.745,8.686,32.042,9.69,37.896,9.69c0.001,0,0.001,0,0.001,0   c2.46,0,4.429-0.193,6.166-0.364l1.102-0.105c7.512-0.666,24.02-9.22,27.775-19.655c2.958-8.219,3.738-17.199,1.77-20.458   C233.168,179.508,230.845,178.393,227.904,176.981z" style="fill: rgb(0, 0, 0);"></path>
			<path id="XMLID_470_" d="M156.734,0C73.318,0,5.454,67.354,5.454,150.143c0,26.777,7.166,52.988,20.741,75.928L0.212,302.716   c-0.484,1.429-0.124,3.009,0.933,4.085C1.908,307.58,2.943,308,4,308c0.405,0,0.813-0.061,1.211-0.188l79.92-25.396   c21.87,11.685,46.588,17.853,71.604,17.853C240.143,300.27,308,232.923,308,150.143C308,67.354,240.143,0,156.734,0z    M156.734,268.994c-23.539,0-46.338-6.797-65.936-19.657c-0.659-0.433-1.424-0.655-2.194-0.655c-0.407,0-0.815,0.062-1.212,0.188   l-40.035,12.726l12.924-38.129c0.418-1.234,0.209-2.595-0.561-3.647c-14.924-20.392-22.813-44.485-22.813-69.677   c0-65.543,53.754-118.867,119.826-118.867c66.064,0,119.812,53.324,119.812,118.867   C276.546,215.678,222.799,268.994,156.734,268.994z" style="fill: rgb(0, 0, 0);"></path>
		</symbol>
		<symbol id="close" viewBox="0 0 240 240">
		<path style="fill-rule:evenodd;clip-rule:evenodd;" d="M131.804,106.491l75.936-75.936c6.99-6.99,6.99-18.323,0-25.312   c-6.99-6.99-18.322-6.99-25.312,0l-75.937,75.937L30.554,5.242c-6.99-6.99-18.322-6.99-25.312,0c-6.989,6.99-6.989,18.323,0,25.312   l75.937,75.936L5.242,182.427c-6.989,6.99-6.989,18.323,0,25.312c6.99,6.99,18.322,6.99,25.312,0l75.937-75.937l75.937,75.937   c6.989,6.99,18.322,6.99,25.312,0c6.99-6.99,6.99-18.322,0-25.312L131.804,106.491z"></path>
		</symbol>
		<symbol id="earth" viewBox="0 0 500 500">
			<g>
				<path d="M246.332,0C110.286,0,0,110.286,0,246.332c0,136.045,110.286,246.332,246.332,246.332s246.332-110.287,246.332-246.332    C492.664,110.286,382.378,0,246.332,0z M246.332,448.686c-111.581,0-202.354-90.773-202.354-202.354    c0-111.578,90.773-202.354,202.354-202.354s202.354,90.773,202.354,202.354S357.913,448.686,246.332,448.686z"></path>
				<path d="M141.828,186.987H91.147c-5.008,13.052-8.429,26.875-9.994,41.258h56.5C138.299,214.132,139.709,200.32,141.828,186.987z"></path>
				<path d="M110.47,150.812h39.201c4.32-15.437,9.689-29.842,16.085-42.789c1.669-3.38,3.413-6.587,5.188-9.716    C146.771,110.672,126.015,128.77,110.47,150.812z"></path>
				<path d="M350.836,305.678h50.681c5.009-13.052,8.43-26.875,9.992-41.258h-56.497C354.366,278.532,352.955,292.344,350.836,305.678    z"></path>
				<path d="M355.012,228.245h56.5c-1.562-14.383-4.984-28.206-9.992-41.258h-50.682C352.955,200.32,354.366,214.132,355.012,228.245z    "></path>
				<path d="M326.909,384.639c-1.67,3.381-3.414,6.588-5.188,9.717c24.176-12.361,44.93-30.459,60.475-52.502h-39.2    C338.674,357.285,333.304,371.693,326.909,384.639z"></path>
				<path d="M342.99,150.812h39.201c-15.545-22.043-36.3-40.141-60.475-52.502c1.775,3.129,3.521,6.335,5.188,9.715    C333.304,120.971,338.674,135.379,342.99,150.812z"></path>
				<path d="M149.673,341.854H110.47c15.545,22.043,36.299,40.141,60.475,52.502c-1.775-3.129-3.52-6.336-5.188-9.717    C159.36,371.693,153.991,357.285,149.673,341.854z"></path>
				<path d="M137.653,264.42h-56.5c1.563,14.383,4.983,28.206,9.991,41.258h50.682C139.709,292.344,138.299,278.532,137.653,264.42z"></path>
				<path d="M264.42,86.158v64.654h40.894C294.986,119.049,280.05,96.339,264.42,86.158z"></path>
				<path d="M187.352,150.812h40.894V86.158C212.614,96.339,197.677,119.049,187.352,150.812z"></path>
				<path d="M178.435,305.678h49.811V264.42H173.85C174.569,278.99,176.15,292.788,178.435,305.678z"></path>
				<path d="M173.849,228.245h54.396v-41.258h-49.811C176.15,199.876,174.569,213.674,173.849,228.245z"></path>
				<path d="M264.42,186.987v41.258h54.396c-0.722-14.571-2.306-28.369-4.587-41.258H264.42z"></path>
				<path d="M264.42,305.678h49.811c2.281-12.887,3.865-26.686,4.587-41.258h-54.396L264.42,305.678L264.42,305.678z"></path>
				<path d="M228.245,406.507v-64.653h-40.893C197.677,373.616,212.614,396.326,228.245,406.507z"></path>
				<path d="M264.42,406.507c15.63-10.179,30.566-32.889,40.894-64.653H264.42V406.507z"></path>
			</g>
		</symbol>
		<symbol id="company" viewBox="0 0 470 470">
			<g>
				<path d="M480.36,494.742h-14.382V43.146c0-4.767-3.864-8.629-8.629-8.629H296.27c-4.766,0-8.629,3.862-8.629,8.629v37.393     h-17.258V43.146c0-4.767-3.864-8.629-8.629-8.629H224.36V8.629c0-4.767-3.864-8.629-8.629-8.629s-8.629,3.862-8.629,8.629v25.888     h-37.393c-4.766,0-8.629,3.862-8.629,8.629v37.393h-25.888c-4.766,0-8.629,3.862-8.629,8.629v71.91h-71.91     c-4.766,0-8.629,3.862-8.629,8.629v325.034H31.64c-4.766,0-8.629,3.862-8.629,8.629S26.875,512,31.64,512H480.36     c4.766,0,8.629-3.862,8.629-8.629S485.125,494.742,480.36,494.742z M178.337,51.775h74.786v28.764h-74.786V51.775z      M149.573,494.742h-5.753V480.36c0-4.767-3.864-8.629-8.629-8.629s-8.629,3.862-8.629,8.629v14.382h-5.753v-28.764h28.764     V494.742z M207.101,273.258v14.845v206.639h-40.27v-37.393c0-4.767-3.864-8.629-8.629-8.629H112.18     c-4.766,0-8.629,3.862-8.629,8.629v37.393h-40.27V178.337h143.82V273.258z M215.73,161.079h-71.91V97.798h143.82v166.831H224.36     v-28.764h25.888c4.766,0,8.629-3.862,8.629-8.629s-3.864-8.629-8.629-8.629H224.36v-28.764h25.888     c4.766,0,8.629-3.862,8.629-8.629s-3.864-8.629-8.629-8.629H224.36v-2.876C224.36,164.941,220.496,161.079,215.73,161.079z      M368.18,494.742H224.36V288.103v-6.215h143.82V494.742z M448.719,494.742h-63.281V273.258v-11.506     c0-4.767-3.864-8.629-8.629-8.629s-8.629,3.862-8.629,8.629v2.876h-17.258v-2.876c0-4.767-3.864-8.629-8.629-8.629     s-8.629,3.862-8.629,8.629v2.876h-28.764V89.169V51.775h143.82V494.742z"></path>
				<path d="M261.753,477.485c4.766,0,8.629-3.864,8.629-8.629V307.778c0-4.767-3.864-8.629-8.629-8.629s-8.629,3.862-8.629,8.629     v161.079C253.124,473.622,256.987,477.485,261.753,477.485z"></path>
				<path d="M296.27,477.485c4.766,0,8.629-3.864,8.629-8.629V307.778c0-4.767-3.864-8.629-8.629-8.629s-8.629,3.862-8.629,8.629     v161.079C287.64,473.622,291.504,477.485,296.27,477.485z"></path>
				<path d="M330.786,477.485c4.766,0,8.629-3.864,8.629-8.629V307.778c0-4.767-3.864-8.629-8.629-8.629s-8.629,3.862-8.629,8.629     v161.079C322.157,473.622,326.021,477.485,330.786,477.485z"></path>
				<path d="M342.292,109.303c4.766,0,8.629-3.862,8.629-8.629V89.169c0-4.767-3.864-8.629-8.629-8.629s-8.629,3.862-8.629,8.629     v11.506C333.663,105.441,337.526,109.303,342.292,109.303z"></path>
				<path d="M376.809,109.303c4.766,0,8.629-3.862,8.629-8.629V89.169c0-4.767-3.864-8.629-8.629-8.629s-8.629,3.862-8.629,8.629     v11.506C368.18,105.441,372.043,109.303,376.809,109.303z"></path>
				<path d="M411.326,109.303c4.766,0,8.629-3.862,8.629-8.629V89.169c0-4.767-3.864-8.629-8.629-8.629s-8.629,3.862-8.629,8.629     v11.506C402.697,105.441,406.56,109.303,411.326,109.303z"></path>
				<path d="M342.292,166.831c4.766,0,8.629-3.862,8.629-8.629v-11.506c0-4.767-3.864-8.629-8.629-8.629s-8.629,3.862-8.629,8.629     v11.506C333.663,162.969,337.526,166.831,342.292,166.831z"></path>
				<path d="M376.809,166.831c4.766,0,8.629-3.862,8.629-8.629v-11.506c0-4.767-3.864-8.629-8.629-8.629s-8.629,3.862-8.629,8.629     v11.506C368.18,162.969,372.043,166.831,376.809,166.831z"></path>
				<path d="M411.326,166.831c4.766,0,8.629-3.862,8.629-8.629v-11.506c0-4.767-3.864-8.629-8.629-8.629s-8.629,3.862-8.629,8.629     v11.506C402.697,162.969,406.56,166.831,411.326,166.831z"></path>
				<path d="M342.292,224.36c4.766,0,8.629-3.862,8.629-8.629v-11.506c0-4.767-3.864-8.629-8.629-8.629s-8.629,3.862-8.629,8.629     v11.506C333.663,220.497,337.526,224.36,342.292,224.36z"></path>
				<path d="M376.809,224.36c4.766,0,8.629-3.862,8.629-8.629v-11.506c0-4.767-3.864-8.629-8.629-8.629s-8.629,3.862-8.629,8.629     v11.506C368.18,220.497,372.043,224.36,376.809,224.36z"></path>
				<path d="M411.326,224.36c4.766,0,8.629-3.862,8.629-8.629v-11.506c0-4.767-3.864-8.629-8.629-8.629s-8.629,3.862-8.629,8.629     v11.506C402.697,220.497,406.56,224.36,411.326,224.36z"></path>
				<path d="M100.674,247.371c4.766,0,8.629-3.862,8.629-8.629v-11.506c0-4.767-3.864-8.629-8.629-8.629s-8.629,3.862-8.629,8.629     v11.506C92.045,243.508,95.909,247.371,100.674,247.371z"></path>
				<path d="M135.191,247.371c4.766,0,8.629-3.862,8.629-8.629v-11.506c0-4.767-3.864-8.629-8.629-8.629s-8.629,3.862-8.629,8.629     v11.506C126.562,243.508,130.425,247.371,135.191,247.371z"></path>
				<path d="M169.708,247.371c4.766,0,8.629-3.862,8.629-8.629v-11.506c0-4.767-3.864-8.629-8.629-8.629s-8.629,3.862-8.629,8.629     v11.506C161.079,243.508,164.942,247.371,169.708,247.371z"></path>
				<path d="M100.674,304.899c4.766,0,8.629-3.862,8.629-8.629v-11.506c0-4.767-3.864-8.629-8.629-8.629s-8.629,3.862-8.629,8.629     v11.506C92.045,301.036,95.909,304.899,100.674,304.899z"></path>
				<path d="M135.191,304.899c4.766,0,8.629-3.862,8.629-8.629v-11.506c0-4.767-3.864-8.629-8.629-8.629s-8.629,3.862-8.629,8.629     v11.506C126.562,301.036,130.425,304.899,135.191,304.899z"></path>
				<path d="M169.708,304.899c4.766,0,8.629-3.862,8.629-8.629v-11.506c0-4.767-3.864-8.629-8.629-8.629s-8.629,3.862-8.629,8.629     v11.506C161.079,301.036,164.942,304.899,169.708,304.899z"></path>
				<path d="M100.674,362.427c4.766,0,8.629-3.862,8.629-8.629v-11.506c0-4.767-3.864-8.629-8.629-8.629s-8.629,3.862-8.629,8.629     v11.506C92.045,358.565,95.909,362.427,100.674,362.427z"></path>
				<path d="M135.191,362.427c4.766,0,8.629-3.862,8.629-8.629v-11.506c0-4.767-3.864-8.629-8.629-8.629s-8.629,3.862-8.629,8.629     v11.506C126.562,358.565,130.425,362.427,135.191,362.427z"></path>
				<path d="M169.708,362.427c4.766,0,8.629-3.862,8.629-8.629v-11.506c0-4.767-3.864-8.629-8.629-8.629s-8.629,3.862-8.629,8.629     v11.506C161.079,358.565,164.942,362.427,169.708,362.427z"></path>
				<path d="M100.674,419.955c4.766,0,8.629-3.862,8.629-8.629V399.82c0-4.767-3.864-8.629-8.629-8.629s-8.629,3.862-8.629,8.629     v11.506C92.045,416.093,95.909,419.955,100.674,419.955z"></path>
				<path d="M135.191,419.955c4.766,0,8.629-3.862,8.629-8.629V399.82c0-4.767-3.864-8.629-8.629-8.629s-8.629,3.862-8.629,8.629     v11.506C126.562,416.093,130.425,419.955,135.191,419.955z"></path>
				<path d="M169.708,419.955c4.766,0,8.629-3.862,8.629-8.629V399.82c0-4.767-3.864-8.629-8.629-8.629s-8.629,3.862-8.629,8.629     v11.506C161.079,416.093,164.942,419.955,169.708,419.955z"></path>
				<path d="M411.326,281.888c4.766,0,8.629-3.862,8.629-8.629v-11.506c0-4.767-3.864-8.629-8.629-8.629s-8.629,3.862-8.629,8.629     v11.506C402.697,278.025,406.56,281.888,411.326,281.888z"></path>
				<path d="M411.326,339.416c4.766,0,8.629-3.862,8.629-8.629v-11.506c0-4.767-3.864-8.629-8.629-8.629s-8.629,3.862-8.629,8.629     v11.506C402.697,335.553,406.56,339.416,411.326,339.416z"></path>
				<path d="M411.326,396.944c4.766,0,8.629-3.862,8.629-8.629v-11.506c0-4.767-3.864-8.629-8.629-8.629s-8.629,3.862-8.629,8.629     v11.506C402.697,393.081,406.56,396.944,411.326,396.944z"></path>
				<path d="M411.326,454.472c4.766,0,8.629-3.862,8.629-8.629v-11.506c0-4.767-3.864-8.629-8.629-8.629s-8.629,3.862-8.629,8.629     v11.506C402.697,450.609,406.56,454.472,411.326,454.472z"></path>
				<path d="M258.876,135.191c0-4.767-3.864-8.629-8.629-8.629h-69.034c-4.766,0-8.629,3.862-8.629,8.629     c0,4.767,3.864,8.629,8.629,8.629h69.034C255.013,143.82,258.876,139.958,258.876,135.191z"></path>
			</g>
		</symbol>
		<symbol id="more" viewBox="0 0 400 400">
			<g>
				<g>
					<path d="M199.995,0C89.716,0,0,89.72,0,200c0,110.279,89.716,200,199.995,200C310.277,400,400,310.279,400,200    C400,89.72,310.277,0,199.995,0z M199.995,373.77C104.182,373.77,26.23,295.816,26.23,200c0-95.817,77.951-173.77,173.765-173.77    c95.817,0,173.772,77.953,173.772,173.77C373.769,295.816,295.812,373.77,199.995,373.77z" style="fill: rgb(0, 0, 0);"></path>
					<path d="M279.478,186.884h-66.363V120.52c0-7.243-5.872-13.115-13.115-13.115s-13.115,5.873-13.115,13.115v66.368h-66.361    c-7.242,0-13.115,5.873-13.115,13.115c0,7.243,5.873,13.115,13.115,13.115h66.358v66.362c0,7.242,5.872,13.114,13.115,13.114    c7.242,0,13.115-5.872,13.115-13.114v-66.365h66.367c7.241,0,13.114-5.873,13.114-13.115    C292.593,192.757,286.72,186.884,279.478,186.884z" style="fill: rgb(0, 0, 0);"></path>
				</g>
			</g>
		</symbol>
</svg>
